simulation
nRows=30
nColumns=15
endheader
time  TH_x TH_y TH_z SC_y  SC_z  SC_x  AC_y  AC_z  AC_x  GH_y  GH_z  GH_yy  EL_x  PS_y
0.000000  0.000000  0.000000  0.000000  -31.868909  20.481231  -10.000000  35.050139  25.953802  10.671092  110.630181  25.555910  -141.593428  54.048823  86.138213
0.000368  0.000000  0.000000  0.000000  -31.868909  20.481231  -1.428571  38.035764  20.842272  3.169337  110.630181  25.555910  -141.593428  54.048823  86.138213
0.000736  0.000000  0.000000  0.000000  -31.868909  20.481231  7.142857  40.217705  15.426321  -3.825324  110.630181  25.555910  -141.593428  54.048823  86.138213
0.001104  0.000000  0.000000  0.000000  -31.868909  20.481231  15.714286  41.669402  9.802902  -10.457470  110.630181  25.555910  -141.593428  54.048823  86.138213
0.001472  0.000000  0.000000  0.000000  -31.868909  20.481231  24.285714  42.444269  4.055142  -16.865776  110.630181  25.555910  -141.593428  54.048823  86.138213
0.001840  0.000000  0.000000  0.000000  -31.868909  20.481231  32.857143  42.572050  -1.742406  -23.183069  110.630181  25.555910  -141.593428  54.048823  86.138213
0.002208  0.000000  0.000000  0.000000  -31.868909  20.481231  41.428571  42.057730  -7.518681  -29.539348  110.630181  25.555910  -141.593428  54.048823  86.138213
0.002576  0.000000  0.000000  0.000000  -31.868909  20.481231  50.000000  40.881379  -13.201115  -36.065874  110.630181  25.555910  -141.593428  54.048823  86.138213
0.002944  0.000000  0.000000  0.000000  -24.568284  8.018798  -10.000000  47.994316  23.619459  1.512264  -5.369854  70.680835  -48.739671  48.466487  77.984766
0.003312  0.000000  0.000000  0.000000  -24.568284  8.018798  -1.428571  50.085718  17.140328  -4.478921  -5.369854  70.680835  -48.739671  48.466487  77.984766
0.003681  0.000000  0.000000  0.000000  -24.568284  8.018798  7.142857  51.422066  10.496903  -10.060294  -5.369854  70.680835  -48.739671  48.466487  77.984766
0.004049  0.000000  0.000000  0.000000  -24.568284  8.018798  15.714286  52.086892  3.760271  -15.404571  -5.369854  70.680835  -48.739671  48.466487  77.984766
0.004417  0.000000  0.000000  0.000000  -24.568284  8.018798  24.285714  52.121498  -3.008449  -20.666430  -5.369854  70.680835  -48.739671  48.466487  77.984766
0.004785  0.000000  0.000000  0.000000  -24.568284  8.018798  32.857143  51.528027  -9.751547  -25.994126  -5.369854  70.680835  -48.739671  48.466487  77.984766
0.005153  0.000000  0.000000  0.000000  -24.568284  8.018798  41.428571  50.269632  -16.408609  -31.541040  -5.369854  70.680835  -48.739671  48.466487  77.984766
0.005521  0.000000  0.000000  0.000000  -24.568284  8.018798  50.000000  48.267708  -22.909985  -37.477323  -5.369854  70.680835  -48.739671  48.466487  77.984766
0.005889  0.000000  0.000000  0.000000  -11.908666  6.952156  -10.000000  47.100482  2.152055  8.363459  -1.468311  76.795726  -11.316719  59.134443  80.831562
0.006257  0.000000  0.000000  0.000000  -11.908666  6.952156  -1.428571  46.999619  -4.127230  2.525290  -1.468311  76.795726  -11.316719  59.134443  80.831562
0.006625  0.000000  0.000000  0.000000  -11.908666  6.952156  7.142857  46.249841  -10.363172  -3.405838  -1.468311  76.795726  -11.316719  59.134443  80.831562
0.006993  0.000000  0.000000  0.000000  -11.908666  6.952156  15.714286  44.813944  -16.486172  -9.576127  -1.468311  76.795726  -11.316719  59.134443  80.831562
0.007361  0.000000  0.000000  0.000000  -11.908666  6.952156  24.285714  42.621853  -22.416814  -16.143600  -1.468311  76.795726  -11.316719  59.134443  80.831562
0.007729  0.000000  0.000000  0.000000  -11.908666  6.952156  32.857143  39.570977  -28.059019  -23.282684  -1.468311  76.795726  -11.316719  59.134443  80.831562
0.008097  0.000000  0.000000  0.000000  -11.908666  6.952156  41.428571  35.531633  -33.292443  -31.182684  -1.468311  76.795726  -11.316719  59.134443  80.831562
0.008465  0.000000  0.000000  0.000000  -11.908666  6.952156  50.000000  30.365232  -37.965178  -40.032559  -1.468311  76.795726  -11.316719  59.134443  80.831562
0.008833  0.000000  0.000000  0.000000  -29.108520  17.553201  -10.000000  60.103999  13.940432  20.883380  46.790504  5.645267  -70.339331  32.641655  86.856403
0.009201  0.000000  0.000000  0.000000  -29.108520  17.553201  -1.428571  60.865917  6.477811  16.595712  46.790504  5.645267  -70.339331  32.641655  86.856403
0.009569  0.000000  0.000000  0.000000  -29.108520  17.553201  7.142857  61.064586  -1.019709  12.433899  46.790504  5.645267  -70.339331  32.641655  86.856403
0.009937  0.000000  0.000000  0.000000  -29.108520  17.553201  15.714286  60.716291  -8.511827  8.252564  46.790504  5.645267  -70.339331  32.641655  86.856403
0.010305  0.000000  0.000000  0.000000  -29.108520  17.553201  24.285714  59.792403  -15.957514  3.904028  46.790504  5.645267  -70.339331  32.641655  86.856403
0.010674  0.000000  0.000000  0.000000  -29.108520  17.553201  32.857143  58.214691  -23.309262  -0.779537  46.790504  5.645267  -70.339331  32.641655  86.856403
